{"scene":0,"asset":{"generator":"ImageToStl.com","version":"2.0"},"scenes":[{"name":"Scene","nodes":[0]}],"nodes":[{"name":"Node0","children":[1,2,3,4,5,6,7,8,9,10,11,12,13,14,15,16,17,18,19,20,21,22,23,24,25]},{"name":"Node1","mesh":0},{"name":"Node2","mesh":1},{"name":"Node3","mesh":2},{"name":"Node4","mesh":3},{"name":"Node5","mesh":4},{"name":"Node6","mesh":5},{"name":"Node7","mesh":6},{"name":"Node8","mesh":7},{"name":"Node9","mesh":8},{"name":"Node10","mesh":9},{"name":"Node11","mesh":10},{"name":"Node12","mesh":11},{"name":"Node13","mesh":12},{"name":"Node14","mesh":13},{"name":"Node15","mesh":14},{"name":"Node16","mesh":15},{"name":"Node17","mesh":16},{"name":"Node18","mesh":17},{"name":"Node19","mesh":18},{"name":"Node20","mesh":19},{"name":"Node21","mesh":20},{"name":"Node22","mesh":21},{"name":"Node23","mesh":22},{"name":"Node24","mesh":23},{"name":"Node25","mesh":24}],"materials":[{"name":"Material.014","pbrMetallicRoughness":{"baseColorFactor":[0.060719,0.060719,0.060719,1.0],"metallicFactor":0.5,"roughnessFactor":0.78653264},"emissiveFactor":[0.0,0.0,0.0],"doubleSided":true},{"name":"Metalic Grey","pbrMetallicRoughness":{"baseColorFactor":[0.467191,0.467191,0.467191,1.0],"metallicFactor":0.5,"roughnessFactor":0.5413796},"emissiveFactor":[0.0,0.0,0.0],"doubleSided":true},{"name":"Material.002","pbrMetallicRoughness":{"baseColorFactor":[1.0,0.124749,0.0,1.0],"metallicFactor":0.5,"roughnessFactor":0.75},"emissiveFactor":[0.0,0.0,0.0],"doubleSided":true},{"name":"Face","pbrMetallicRoughness":{"baseColorFactor":[0.054965,0.054965,0.054965,1.0],"metallicFactor":0.5,"roughnessFactor":0.0},"emissiveFactor":[0.0,0.0,0.0],"doubleSided":true},{"name":"Material.004","pbrMetallicRoughness":{"baseColorFactor":[0.0,0.0,0.0,1.0],"metallicFactor":0.5,"roughnessFactor":1.0},"emissiveFactor":[0.0,0.0,0.0],"doubleSided":true},{"name":"Green Light","pbrMetallicRoughness":{"baseColorFactor":[0.0,0.846927,1.0,1.0],"metallicFactor":0.5,"roughnessFactor":0.75},"emissiveFactor":[0.0,5.043169,6.5],"doubleSided":true},{"name":"Red Light","pbrMetallicRoughness":{"baseColorFactor":[0.049708,1.0,0.940559,1.0],"metallicFactor":0.5,"roughnessFactor":0.75},"emissiveFactor":[0.0,11.999999,11.999174],"doubleSided":true}],"meshes":[{"name":"Mesh0","primitives":[{"indices":3,"material":0,"attributes":{"POSITION":0,"NORMAL":1,"TEXCOORD_0":2}}]},{"name":"Mesh0","primitives":[{"indices":7,"material":1,"attributes":{"POSITION":4,"NORMAL":5,"TEXCOORD_0":6}}]},{"name":"Mesh0","primitives":[{"indices":11,"material":2,"attributes":{"POSITION":8,"NORMAL":9,"TEXCOORD_0":10}},{"indices":12,"material":3,"attributes":{"POSITION":8,"NORMAL":9,"TEXCOORD_0":10}}]},{"name":"Mesh0","primitives":[{"indices":16,"material":4,"attributes":{"POSITION":13,"NORMAL":14,"TEXCOORD_0":15}}]},{"name":"Mesh0","primitives":[{"indices":20,"material":4,"attributes":{"POSITION":17,"NORMAL":18,"TEXCOORD_0":19}},{"indices":21,"material":5,"attributes":{"POSITION":17,"NORMAL":18,"TEXCOORD_0":19}}]},{"name":"Mesh0","primitives":[{"indices":25,"material":3,"attributes":{"POSITION":22,"NORMAL":23,"TEXCOORD_0":24}},{"indices":26,"material":4,"attributes":{"POSITION":22,"NORMAL":23,"TEXCOORD_0":24}},{"indices":27,"material":6,"attributes":{"POSITION":22,"NORMAL":23,"TEXCOORD_0":24}}]},{"name":"Mesh0","primitives":[{"indices":31,"material":4,"attributes":{"POSITION":28,"NORMAL":29,"TEXCOORD_0":30}}]},{"name":"Mesh0","primitives":[{"indices":35,"material":4,"attributes":{"POSITION":32,"NORMAL":33,"TEXCOORD_0":34}}]},{"name":"Mesh0","primitives":[{"indices":39,"material":4,"attributes":{"POSITION":36,"NORMAL":37,"TEXCOORD_0":38}}]},{"name":"Mesh0","primitives":[{"indices":43,"material":1,"attributes":{"POSITION":40,"NORMAL":41,"TEXCOORD_0":42}}]},{"name":"Mesh0","primitives":[{"indices":47,"material":1,"attributes":{"POSITION":44,"NORMAL":45,"TEXCOORD_0":46}}]},{"name":"Mesh0","primitives":[{"indices":51,"material":0,"attributes":{"POSITION":48,"NORMAL":49,"TEXCOORD_0":50}}]},{"name":"Mesh0","primitives":[{"indices":55,"material":0,"attributes":{"POSITION":52,"NORMAL":53,"TEXCOORD_0":54}}]},{"name":"Mesh0","primitives":[{"indices":59,"material":0,"attributes":{"POSITION":56,"NORMAL":57,"TEXCOORD_0":58}}]},{"name":"Mesh0","primitives":[{"indices":63,"material":1,"attributes":{"POSITION":60,"NORMAL":61,"TEXCOORD_0":62}}]},{"name":"Mesh0","primitives":[{"indices":67,"material":0,"attributes":{"POSITION":64,"NORMAL":65,"TEXCOORD_0":66}}]},{"name":"Mesh0","primitives":[{"indices":71,"material":0,"attributes":{"POSITION":68,"NORMAL":69,"TEXCOORD_0":70}}]},{"name":"Mesh0","primitives":[{"indices":75,"material":0,"attributes":{"POSITION":72,"NORMAL":73,"TEXCOORD_0":74}}]},{"name":"Mesh0","primitives":[{"indices":79,"material":0,"attributes":{"POSITION":76,"NORMAL":77,"TEXCOORD_0":78}}]},{"name":"Mesh0","primitives":[{"indices":83,"material":0,"attributes":{"POSITION":80,"NORMAL":81,"TEXCOORD_0":82}}]},{"name":"Mesh0","primitives":[{"indices":87,"material":0,"attributes":{"POSITION":84,"NORMAL":85,"TEXCOORD_0":86}}]},{"name":"Mesh0","primitives":[{"indices":91,"material":1,"attributes":{"POSITION":88,"NORMAL":89,"TEXCOORD_0":90}}]},{"name":"Mesh0","primitives":[{"indices":95,"material":0,"attributes":{"POSITION":92,"NORMAL":93,"TEXCOORD_0":94}}]},{"name":"Mesh0","primitives":[{"indices":99,"material":0,"attributes":{"POSITION":96,"NORMAL":97,"TEXCOORD_0":98}}]},{"name":"Mesh0","primitives":[{"indices":103,"material":6,"attributes":{"POSITION":100,"NORMAL":101,"TEXCOORD_0":102}}]}],"accessors":[{"bufferView":0,"componentType":5126,"count":108,"type":"VEC3","min":[0.8261897,0.6156942,0.092143476],"max":[0.8875855,1.2836221,0.82919115]},{"bufferView":1,"componentType":5126,"count":108,"type":"VEC3"},{"bufferView":2,"componentType":5126,"count":108,"type":"VEC2"},{"bufferView":3,"componentType":5123,"count":1044,"type":"SCALAR"},{"bufferView":4,"componentType":5126,"count":290,"type":"VEC3","min":[-0.23011632,-0.45013696,1.0680462],"max":[0.23011626,0.45013696,2.1177146]},{"bufferView":5,"componentType":5126,"count":290,"type":"VEC3"},{"bufferView":6,"componentType":5126,"count":290,"type":"VEC2"},{"bufferView":7,"componentType":5123,"count":3132,"type":"SCALAR"},{"bufferView":8,"componentType":5126,"count":614,"type":"VEC3","min":[-0.92068124,-0.9524656,1.5234759],"max":[0.94723916,1.2747048,3.0595355]},{"bufferView":9,"componentType":5126,"count":614,"type":"VEC3"},{"bufferView":10,"componentType":5126,"count":614,"type":"VEC2"},{"bufferView":11,"componentType":5123,"count":7254,"type":"SCALAR"},{"bufferView":12,"componentType":5123,"count":342,"type":"SCALAR"},{"bufferView":13,"componentType":5126,"count":109,"type":"VEC3","min":[-0.6234137,1.0850444,2.0892131],"max":[-0.21826151,1.379891,2.4863055]},{"bufferView":14,"componentType":5126,"count":109,"type":"VEC3"},{"bufferView":15,"componentType":5126,"count":109,"type":"VEC2"},{"bufferView":16,"componentType":5123,"count":1116,"type":"SCALAR"},{"bufferView":17,"componentType":5126,"count":118,"type":"VEC3","min":[-0.5076568,1.1971209,2.424643],"max":[-0.37724862,1.3241882,3.902151]},{"bufferView":18,"componentType":5126,"count":118,"type":"VEC3"},{"bufferView":19,"componentType":5126,"count":118,"type":"VEC2"},{"bufferView":20,"componentType":5123,"count":414,"type":"SCALAR"},{"bufferView":21,"componentType":5123,"count":846,"type":"SCALAR"},{"bufferView":22,"componentType":5126,"count":78,"type":"VEC3","min":[0.0058042556,-0.8078172,2.0360248],"max":[0.4880633,-0.6001158,2.5469856]},{"bufferView":23,"componentType":5126,"count":78,"type":"VEC3"},{"bufferView":24,"componentType":5126,"count":78,"type":"VEC2"},{"bufferView":25,"componentType":5123,"count":144,"type":"SCALAR"},{"bufferView":26,"componentType":5123,"count":252,"type":"SCALAR"},{"bufferView":27,"componentType":5123,"count":288,"type":"SCALAR"},{"bufferView":28,"componentType":5126,"count":278,"type":"VEC3","min":[-0.8396185,-0.54652566,2.4929154],"max":[0.83594626,0.5460317,2.6794357]},{"bufferView":29,"componentType":5126,"count":278,"type":"VEC3"},{"bufferView":30,"componentType":5126,"count":278,"type":"VEC2"},{"bufferView":31,"componentType":5123,"count":2412,"type":"SCALAR"},{"bufferView":32,"componentType":5126,"count":278,"type":"VEC3","min":[-0.84142995,-0.54715216,1.9079316],"max":[0.8377525,0.54666424,2.094162]},{"bufferView":33,"componentType":5126,"count":278,"type":"VEC3"},{"bufferView":34,"componentType":5126,"count":278,"type":"VEC2"},{"bufferView":35,"componentType":5123,"count":2412,"type":"SCALAR"},{"bufferView":36,"componentType":5126,"count":298,"type":"VEC3","min":[-0.60330933,-0.82264924,1.4759364],"max":[0.9575118,-0.18655938,3.1070747]},{"bufferView":37,"componentType":5126,"count":298,"type":"VEC3"},{"bufferView":38,"componentType":5126,"count":298,"type":"VEC2"},{"bufferView":39,"componentType":5123,"count":2880,"type":"SCALAR"},{"bufferView":40,"componentType":5126,"count":272,"type":"VEC3","min":[-0.7887386,0.8361291,0.88420516],"max":[0.7887388,1.2422496,1.3558122]},{"bufferView":41,"componentType":5126,"count":272,"type":"VEC3"},{"bufferView":42,"componentType":5126,"count":272,"type":"VEC2"},{"bufferView":43,"componentType":5123,"count":2232,"type":"SCALAR"},{"bufferView":44,"componentType":5126,"count":272,"type":"VEC3","min":[-0.78873867,0.68619347,0.7644956],"max":[0.7887389,1.0923139,1.2361027]},{"bufferView":45,"componentType":5126,"count":272,"type":"VEC3"},{"bufferView":46,"componentType":5126,"count":272,"type":"VEC2"},{"bufferView":47,"componentType":5123,"count":2232,"type":"SCALAR"},{"bufferView":48,"componentType":5126,"count":110,"type":"VEC3","min":[0.6428999,0.6156942,0.092143476],"max":[0.70429575,1.2836223,0.82919115]},{"bufferView":49,"componentType":5126,"count":110,"type":"VEC3"},{"bufferView":50,"componentType":5126,"count":110,"type":"VEC2"},{"bufferView":51,"componentType":5123,"count":1044,"type":"SCALAR"},{"bufferView":52,"componentType":5126,"count":137,"type":"VEC3","min":[0.11369729,-0.16801047,1.0559003],"max":[0.54780674,0.16801047,1.3919214]},{"bufferView":53,"componentType":5126,"count":137,"type":"VEC3"},{"bufferView":54,"componentType":5126,"count":137,"type":"VEC2"},{"bufferView":55,"componentType":5123,"count":1404,"type":"SCALAR"},{"bufferView":56,"componentType":5126,"count":183,"type":"VEC3","min":[0.4664897,-0.14596474,1.0785813],"max":[0.75841904,0.14596474,1.37619]},{"bufferView":57,"componentType":5126,"count":183,"type":"VEC3"},{"bufferView":58,"componentType":5126,"count":183,"type":"VEC2"},{"bufferView":59,"componentType":5123,"count":2016,"type":"SCALAR"},{"bufferView":60,"componentType":5126,"count":100,"type":"VEC3","min":[0.6865062,-0.17944169,1.0434959],"max":[0.82725495,0.17544508,1.3983825]},{"bufferView":61,"componentType":5126,"count":100,"type":"VEC3"},{"bufferView":62,"componentType":5126,"count":100,"type":"VEC2"},{"bufferView":63,"componentType":5123,"count":828,"type":"SCALAR"},{"bufferView":64,"componentType":5126,"count":464,"type":"VEC3","min":[0.5960903,-0.13109231,0.7351496],"max":[0.93211126,1.2435125,1.6292108]},{"bufferView":65,"componentType":5126,"count":464,"type":"VEC3"},{"bufferView":66,"componentType":5126,"count":464,"type":"VEC2"},{"bufferView":67,"componentType":5123,"count":4284,"type":"SCALAR"},{"bufferView":68,"componentType":5126,"count":228,"type":"VEC3","min":[0.64397424,0.080022335,-0.0023531914],"max":[0.88896894,0.7634338,0.24470955]},{"bufferView":69,"componentType":5126,"count":228,"type":"VEC3"},{"bufferView":70,"componentType":5126,"count":228,"type":"VEC2"},{"bufferView":71,"componentType":5123,"count":2160,"type":"SCALAR"},{"bufferView":72,"componentType":5126,"count":114,"type":"VEC3","min":[-0.8875856,0.6156942,0.092143476],"max":[-0.8261897,1.2836221,0.82919115]},{"bufferView":73,"componentType":5126,"count":114,"type":"VEC3"},{"bufferView":74,"componentType":5126,"count":114,"type":"VEC2"},{"bufferView":75,"componentType":5123,"count":1044,"type":"SCALAR"},{"bufferView":76,"componentType":5126,"count":114,"type":"VEC3","min":[-0.7042958,0.6156942,0.092143476],"max":[-0.64289993,1.2836223,0.82919115]},{"bufferView":77,"componentType":5126,"count":114,"type":"VEC3"},{"bufferView":78,"componentType":5126,"count":114,"type":"VEC2"},{"bufferView":79,"componentType":5123,"count":1044,"type":"SCALAR"},{"bufferView":80,"componentType":5126,"count":138,"type":"VEC3","min":[-0.5478067,-0.16801047,1.0559003],"max":[-0.11369723,0.16801047,1.3919214]},{"bufferView":81,"componentType":5126,"count":138,"type":"VEC3"},{"bufferView":82,"componentType":5126,"count":138,"type":"VEC2"},{"bufferView":83,"componentType":5123,"count":1404,"type":"SCALAR"},{"bufferView":84,"componentType":5126,"count":182,"type":"VEC3","min":[-0.7584192,-0.14596474,1.0785813],"max":[-0.4664895,0.14596474,1.37619]},{"bufferView":85,"componentType":5126,"count":182,"type":"VEC3"},{"bufferView":86,"componentType":5126,"count":182,"type":"VEC2"},{"bufferView":87,"componentType":5123,"count":2016,"type":"SCALAR"},{"bufferView":88,"componentType":5126,"count":104,"type":"VEC3","min":[-0.82725483,-0.17944169,1.0434959],"max":[-0.6865062,0.17544508,1.3983825]},{"bufferView":89,"componentType":5126,"count":104,"type":"VEC3"},{"bufferView":90,"componentType":5126,"count":104,"type":"VEC2"},{"bufferView":91,"componentType":5123,"count":828,"type":"SCALAR"},{"bufferView":92,"componentType":5126,"count":464,"type":"VEC3","min":[-0.93211156,-0.13109243,0.7351496],"max":[-0.5960905,1.2435125,1.6292108]},{"bufferView":93,"componentType":5126,"count":464,"type":"VEC3"},{"bufferView":94,"componentType":5126,"count":464,"type":"VEC2"},{"bufferView":95,"componentType":5123,"count":4284,"type":"SCALAR"},{"bufferView":96,"componentType":5126,"count":228,"type":"VEC3","min":[-0.888969,0.080022335,-0.0023531914],"max":[-0.64397424,0.7634338,0.24470955]},{"bufferView":97,"componentType":5126,"count":228,"type":"VEC3"},{"bufferView":98,"componentType":5126,"count":228,"type":"VEC2"},{"bufferView":99,"componentType":5123,"count":2160,"type":"SCALAR"},{"bufferView":100,"componentType":5126,"count":136,"type":"VEC3","min":[-0.7773534,0.6894765,0.7715941],"max":[0.77735347,1.0154084,1.1656016]},{"bufferView":101,"componentType":5126,"count":136,"type":"VEC3"},{"bufferView":102,"componentType":5126,"count":136,"type":"VEC2"},{"bufferView":103,"componentType":5123,"count":1224,"type":"SCALAR"}],"bufferViews":[{"target":34962,"buffer":0,"byteLength":1296,"byteOffset":0},{"target":34962,"buffer":0,"byteLength":1296,"byteOffset":1296},{"target":34962,"buffer":0,"byteLength":864,"byteOffset":2592},{"target":34963,"buffer":0,"byteLength":2088,"byteOffset":3456},{"target":34962,"buffer":0,"byteLength":3480,"byteOffset":5544},{"target":34962,"buffer":0,"byteLength":3480,"byteOffset":9024},{"target":34962,"buffer":0,"byteLength":2320,"byteOffset":12504},{"target":34963,"buffer":0,"byteLength":6264,"byteOffset":14824},{"target":34962,"buffer":0,"byteLength":7368,"byteOffset":21088},{"target":34962,"buffer":0,"byteLength":7368,"byteOffset":28456},{"target":34962,"buffer":0,"byteLength":4912,"byteOffset":35824},{"target":34963,"buffer":0,"byteLength":14508,"byteOffset":40736},{"target":34963,"buffer":0,"byteLength":684,"byteOffset":55244},{"target":34962,"buffer":0,"byteLength":1308,"byteOffset":55928},{"target":34962,"buffer":0,"byteLength":1308,"byteOffset":57236},{"target":34962,"buffer":0,"byteLength":872,"byteOffset":58544},{"target":34963,"buffer":0,"byteLength":2232,"byteOffset":59416},{"target":34962,"buffer":0,"byteLength":1416,"byteOffset":61648},{"target":34962,"buffer":0,"byteLength":1416,"byteOffset":63064},{"target":34962,"buffer":0,"byteLength":944,"byteOffset":64480},{"target":34963,"buffer":0,"byteLength":828,"byteOffset":65424},{"target":34963,"buffer":0,"byteLength":1692,"byteOffset":66252},{"target":34962,"buffer":0,"byteLength":936,"byteOffset":67944},{"target":34962,"buffer":0,"byteLength":936,"byteOffset":68880},{"target":34962,"buffer":0,"byteLength":624,"byteOffset":69816},{"target":34963,"buffer":0,"byteLength":288,"byteOffset":70440},{"target":34963,"buffer":0,"byteLength":504,"byteOffset":70728},{"target":34963,"buffer":0,"byteLength":576,"byteOffset":71232},{"target":34962,"buffer":0,"byteLength":3336,"byteOffset":71808},{"target":34962,"buffer":0,"byteLength":3336,"byteOffset":75144},{"target":34962,"buffer":0,"byteLength":2224,"byteOffset":78480},{"target":34963,"buffer":0,"byteLength":4824,"byteOffset":80704},{"target":34962,"buffer":0,"byteLength":3336,"byteOffset":85528},{"target":34962,"buffer":0,"byteLength":3336,"byteOffset":88864},{"target":34962,"buffer":0,"byteLength":2224,"byteOffset":92200},{"target":34963,"buffer":0,"byteLength":4824,"byteOffset":94424},{"target":34962,"buffer":0,"byteLength":3576,"byteOffset":99248},{"target":34962,"buffer":0,"byteLength":3576,"byteOffset":102824},{"target":34962,"buffer":0,"byteLength":2384,"byteOffset":106400},{"target":34963,"buffer":0,"byteLength":5760,"byteOffset":108784},{"target":34962,"buffer":0,"byteLength":3264,"byteOffset":114544},{"target":34962,"buffer":0,"byteLength":3264,"byteOffset":117808},{"target":34962,"buffer":0,"byteLength":2176,"byteOffset":121072},{"target":34963,"buffer":0,"byteLength":4464,"byteOffset":123248},{"target":34962,"buffer":0,"byteLength":3264,"byteOffset":127712},{"target":34962,"buffer":0,"byteLength":3264,"byteOffset":130976},{"target":34962,"buffer":0,"byteLength":2176,"byteOffset":134240},{"target":34963,"buffer":0,"byteLength":4464,"byteOffset":136416},{"target":34962,"buffer":0,"byteLength":1320,"byteOffset":140880},{"target":34962,"buffer":0,"byteLength":1320,"byteOffset":142200},{"target":34962,"buffer":0,"byteLength":880,"byteOffset":143520},{"target":34963,"buffer":0,"byteLength":2088,"byteOffset":144400},{"target":34962,"buffer":0,"byteLength":1644,"byteOffset":146488},{"target":34962,"buffer":0,"byteLength":1644,"byteOffset":148132},{"target":34962,"buffer":0,"byteLength":1096,"byteOffset":149776},{"target":34963,"buffer":0,"byteLength":2808,"byteOffset":150872},{"target":34962,"buffer":0,"byteLength":2196,"byteOffset":153680},{"target":34962,"buffer":0,"byteLength":2196,"byteOffset":155876},{"target":34962,"buffer":0,"byteLength":1464,"byteOffset":158072},{"target":34963,"buffer":0,"byteLength":4032,"byteOffset":159536},{"target":34962,"buffer":0,"byteLength":1200,"byteOffset":163568},{"target":34962,"buffer":0,"byteLength":1200,"byteOffset":164768},{"target":34962,"buffer":0,"byteLength":800,"byteOffset":165968},{"target":34963,"buffer":0,"byteLength":1656,"byteOffset":166768},{"target":34962,"buffer":0,"byteLength":5568,"byteOffset":168424},{"target":34962,"buffer":0,"byteLength":5568,"byteOffset":173992},{"target":34962,"buffer":0,"byteLength":3712,"byteOffset":179560},{"target":34963,"buffer":0,"byteLength":8568,"byteOffset":183272},{"target":34962,"buffer":0,"byteLength":2736,"byteOffset":191840},{"target":34962,"buffer":0,"byteLength":2736,"byteOffset":194576},{"target":34962,"buffer":0,"byteLength":1824,"byteOffset":197312},{"target":34963,"buffer":0,"byteLength":4320,"byteOffset":199136},{"target":34962,"buffer":0,"byteLength":1368,"byteOffset":203456},{"target":34962,"buffer":0,"byteLength":1368,"byteOffset":204824},{"target":34962,"buffer":0,"byteLength":912,"byteOffset":206192},{"target":34963,"buffer":0,"byteLength":2088,"byteOffset":207104},{"target":34962,"buffer":0,"byteLength":1368,"byteOffset":209192},{"target":34962,"buffer":0,"byteLength":1368,"byteOffset":210560},{"target":34962,"buffer":0,"byteLength":912,"byteOffset":211928},{"target":34963,"buffer":0,"byteLength":2088,"byteOffset":212840},{"target":34962,"buffer":0,"byteLength":1656,"byteOffset":214928},{"target":34962,"buffer":0,"byteLength":1656,"byteOffset":216584},{"target":34962,"buffer":0,"byteLength":1104,"byteOffset":218240},{"target":34963,"buffer":0,"byteLength":2808,"byteOffset":219344},{"target":34962,"buffer":0,"byteLength":2184,"byteOffset":222152},{"target":34962,"buffer":0,"byteLength":2184,"byteOffset":224336},{"target":34962,"buffer":0,"byteLength":1456,"byteOffset":226520},{"target":34963,"buffer":0,"byteLength":4032,"byteOffset":227976},{"target":34962,"buffer":0,"byteLength":1248,"byteOffset":232008},{"target":34962,"buffer":0,"byteLength":1248,"byteOffset":233256},{"target":34962,"buffer":0,"byteLength":832,"byteOffset":234504},{"target":34963,"buffer":0,"byteLength":1656,"byteOffset":235336},{"target":34962,"buffer":0,"byteLength":5568,"byteOffset":236992},{"target":34962,"buffer":0,"byteLength":5568,"byteOffset":242560},{"target":34962,"buffer":0,"byteLength":3712,"byteOffset":248128},{"target":34963,"buffer":0,"byteLength":8568,"byteOffset":251840},{"target":34962,"buffer":0,"byteLength":2736,"byteOffset":260408},{"target":34962,"buffer":0,"byteLength":2736,"byteOffset":263144},{"target":34962,"buffer":0,"byteLength":1824,"byteOffset":265880},{"target":34963,"buffer":0,"byteLength":4320,"byteOffset":267704},{"target":34962,"buffer":0,"byteLength":1632,"byteOffset":272024},{"target":34962,"buffer":0,"byteLength":1632,"byteOffset":273656},{"target":34962,"buffer":0,"byteLength":1088,"byteOffset":275288},{"target":34963,"buffer":0,"byteLength":2448,"byteOffset":276376}],"buffers":[{"byteLength":278824,"uri":"data:application/octet-stream;base64,"}]}